# Blender v2.76 (sub 0) OBJ File: 'StaticItems.blend'
# www.blender.org
o Cave_CapStart_A
v 1.000000 0.661243 0.959270
v 1.000000 0.677463 -0.952754
v 1.000000 -1.033922 -0.642971
v 1.000000 1.030310 0.661851
v 1.000000 -0.637606 0.993921
v 1.000000 0.288293 0.940273
v 1.000000 1.050747 -0.602926
v 1.000000 -0.637606 -0.994253
v 1.000000 0.288293 -0.937185
v 1.000000 -0.923444 0.893325
v 1.000000 0.924944 0.905047
v 1.000000 -1.030540 0.659089
v 1.000000 -0.923444 -0.893325
v 1.000000 0.926605 -0.896327
v 0.351861 0.946353 0.529986
v 0.000000 -0.572718 0.785487
v 0.201252 0.572395 0.903220
v 0.320059 -0.040664 0.955733
v 0.488272 0.229960 0.965542
v 0.439819 1.034186 0.031919
v 0.058235 -0.965013 0.250372
v 0.419369 -0.999143 0.672254
v -0.354366 -0.829219 0.434086
v -0.322837 1.000255 -0.624307
v 0.411818 -0.646036 -0.998375
v -0.330500 -0.651655 -0.868567
v -0.343940 0.652836 -0.854169
v 0.406772 0.576806 -1.002356
v 0.386704 -0.282140 -1.097688
v 0.233961 -0.979681 -0.607409
v 0.323169 -0.895983 0.835494
v -0.399586 0.998911 0.564848
v -0.343429 -0.637810 0.677161
v -0.386432 0.666258 0.889277
v 0.409194 0.876250 -0.923900
v -0.217500 0.906480 -0.827000
v 0.197981 -0.881889 -0.812833
v -0.430665 1.022950 -0.313216
v 0.395419 0.290905 -1.009755
v 0.313190 0.807950 0.807173
v -0.255705 0.896016 0.783606
v -0.506897 1.014756 0.252697
v 0.433239 -0.674984 0.945496
v -0.443027 -0.834323 0.252505
v -0.370604 -0.510562 -0.911062
v -0.446523 -0.803810 -0.513637
v -0.796801 0.692821 0.340615
v -0.508811 0.747808 -0.372127
v -0.807818 -0.029908 0.292161
v -0.619907 -0.628140 -0.258404
v -0.669633 0.018321 -0.225665
v -0.663424 0.738062 0.033857
v -0.688999 -0.210990 0.023744
v -0.588373 -0.615809 0.220740
v -0.441139 0.383667 0.922816
v -0.474138 0.077526 0.855437
v -0.594224 0.701587 0.597175
vn 1.000000 0.000000 0.000000
vn 0.071000 0.997100 0.026200
vn 0.082100 0.921600 0.379500
vn -0.159600 -0.266100 0.950600
vn -0.195900 0.899800 0.389800
vn 0.018800 0.369800 0.928900
vn -0.004600 0.118700 0.992900
vn -0.078900 -0.206200 0.975300
vn -0.109900 0.419600 0.901000
vn -0.058600 -0.331400 0.941700
vn -0.025100 -0.020600 0.999500
vn -0.094100 -0.405700 0.909200
vn -0.209800 0.886100 0.413200
vn -0.252300 -0.966900 -0.037400
vn -0.011200 0.999800 0.016200
vn 0.244800 0.143400 -0.958900
vn -0.053900 -0.998500 0.002600
vn 0.010500 -0.262600 -0.964800
vn -0.410600 -0.707300 0.575400
vn -0.248900 -0.957100 0.148400
vn -0.022900 0.902800 -0.429500
vn 0.011400 -0.332900 -0.942900
vn -0.028800 0.920600 -0.389500
vn -0.142200 0.175200 -0.974200
vn -0.051600 0.871900 -0.486900
vn -0.111600 -0.550000 -0.827700
vn -0.281100 -0.845400 -0.454300
vn -0.828400 -0.362300 0.427100
vn -0.994500 -0.079900 0.067500
vn -0.858400 -0.021300 0.512600
vn -0.922700 0.130600 -0.362700
vn -0.966400 0.031800 -0.254900
vn -0.938400 -0.214900 -0.270400
vn -0.782000 0.220600 0.583000
vn -0.816200 0.446200 -0.367100
vn -0.734500 0.624900 -0.264700
vn -0.753200 0.613600 -0.237000
vn -0.598900 0.662300 0.450300
vn -0.622200 0.590400 0.514000
vn -0.788600 -0.466300 0.400800
vn -0.663200 -0.745800 0.062800
vn -0.872400 -0.298700 -0.387000
vn 0.117600 0.881800 0.456700
vn 0.026700 0.220800 -0.975000
vn -0.082400 -0.996500 -0.010000
vn -0.361800 -0.079500 0.928800
vn -0.273600 -0.139900 0.951600
vn -0.276100 -0.128600 0.952500
vn -0.386800 -0.249300 0.887800
vn 0.042700 0.057800 0.997400
vn -0.171300 0.198400 0.965000
vn 0.041800 0.397800 0.916500
vn -0.018200 0.164300 0.986200
vn -0.119600 0.038400 0.992100
vn 0.055000 -0.050800 0.997200
vn -0.077700 -0.862800 0.499500
vn -0.039700 -0.908700 0.415500
vn -0.017700 0.999800 0.012100
vn 0.021100 0.983900 0.177200
vn -0.254700 -0.966400 -0.035600
vn -0.070500 -0.997500 0.002600
vn -0.253100 -0.957400 0.139200
vn -0.307000 -0.875800 0.372500
vn 0.079500 0.022600 -0.996600
vn -0.036600 0.995700 -0.085300
vn -0.163900 -0.270200 -0.948700
vn -0.142300 -0.529100 -0.836500
vn -0.134400 -0.320600 -0.937600
vn -0.017200 0.999800 0.010900
vn -0.162900 0.251300 -0.954100
vn -0.190300 0.033000 -0.981200
vn -0.254000 0.053000 -0.965700
vn -0.131600 0.152300 -0.979500
vn 0.119200 0.061100 -0.991000
vn 0.118900 -0.039700 -0.992100
vn 0.037900 0.253000 -0.966700
vn -0.087600 -0.911400 -0.402200
vn -0.341800 -0.870400 -0.354500
vn -0.929000 0.135600 -0.344500
vn -0.903600 0.041600 -0.426300
vn -0.796700 -0.412800 -0.441400
vn -0.858000 -0.020500 0.513300
vn -0.765500 0.242000 0.596200
vn -0.867700 0.379200 -0.321400
vn -0.929600 -0.053000 -0.364700
vn -0.926500 -0.323600 -0.191800
vn -0.802200 -0.278200 0.528300
vn -0.854800 0.127200 -0.503100
vn -0.886800 0.322700 -0.330900
vn -0.947400 0.295500 -0.123300
vn -0.783800 0.545400 0.297100
vn -0.617600 0.472700 0.628600
vn -0.791700 -0.462200 0.399500
vn -0.831300 -0.555600 -0.018300
vn -0.828000 -0.363800 -0.426600
vn -0.156000 0.977100 0.144800
vn -0.084000 -0.017000 0.996300
vn -0.081900 0.111600 0.990400
vn -0.083400 -0.905400 -0.416400
s off
f 4//1 11//1 7//1
f 7//1 11//1 14//1
f 14//1 11//1 2//1
f 11//1 1//1 2//1
f 2//1 1//1 9//1
f 1//1 6//1 9//1
f 9//1 6//1 8//1
f 6//1 5//1 8//1
f 8//1 5//1 13//1
f 5//1 10//1 13//1
f 13//1 10//1 3//1
f 10//1 12//1 3//1
f 15//2 42//2 32//2
f 15//3 32//3 41//3
f 18//4 56//4 33//4
f 4//5 15//5 11//5
f 17//6 40//6 41//6
f 17//7 34//7 55//7
f 19//8 55//8 56//8
f 17//9 1//9 40//9
f 5//10 43//10 10//10
f 19//11 18//11 43//11
f 10//12 43//12 31//12
f 11//13 15//13 40//13
f 21//14 44//14 46//14
f 20//15 4//15 7//15
f 29//16 39//16 8//16
f 22//17 3//17 12//17
f 25//18 29//18 8//18
f 23//19 31//19 33//19
f 23//20 44//20 21//20
f 24//21 35//21 36//21
f 25//22 8//22 13//22
f 24//23 7//23 14//23
f 27//24 36//24 35//24
f 35//25 24//25 14//25
f 37//26 25//26 13//26
f 30//27 46//27 26//27
f 49//28 54//28 33//28
f 51//29 50//29 54//29
f 47//30 49//30 56//30
f 47//31 48//31 51//31
f 47//32 51//32 49//32
f 51//33 53//33 49//33
f 34//34 57//34 55//34
f 36//35 27//35 48//35
f 48//36 52//36 42//36
f 52//37 47//37 42//37
f 42//38 47//38 57//38
f 57//39 34//39 41//39
f 33//40 54//40 44//40
f 54//41 50//41 46//41
f 50//42 45//42 46//42
f 40//43 15//43 41//43
f 35//44 14//44 2//44
f 3//45 22//45 21//45
f 18//46 16//46 43//46
f 16//47 18//47 33//47
f 31//48 16//48 33//48
f 16//49 31//49 43//49
f 6//50 19//50 5//50
f 1//51 11//51 40//51
f 34//52 17//52 41//52
f 19//53 17//53 55//53
f 18//54 19//54 56//54
f 1//55 19//55 6//55
f 22//56 10//56 31//56
f 22//57 12//57 10//57
f 42//58 20//58 38//58
f 20//59 42//59 15//59
f 30//60 21//60 46//60
f 3//61 21//61 30//61
f 22//62 23//62 21//62
f 23//63 22//63 31//63
f 39//64 28//64 2//64
f 24//65 38//65 7//65
f 25//66 26//66 29//66
f 26//67 25//67 37//67
f 26//68 45//68 29//68
f 20//69 7//69 38//69
f 28//70 27//70 35//70
f 27//71 28//71 39//71
f 27//72 29//72 45//72
f 29//73 27//73 39//73
f 8//74 39//74 9//74
f 2//75 9//75 39//75
f 28//76 35//76 2//76
f 37//77 13//77 3//77
f 37//78 30//78 26//78
f 51//79 48//79 27//79
f 51//80 27//80 45//80
f 53//81 51//81 54//81
f 55//82 47//82 56//82
f 55//83 57//83 47//83
f 47//84 52//84 48//84
f 50//85 51//85 45//85
f 49//86 53//86 54//86
f 56//87 49//87 33//87
f 24//88 36//88 48//88
f 24//89 48//89 38//89
f 38//90 48//90 42//90
f 32//91 42//91 57//91
f 32//92 57//92 41//92
f 23//93 33//93 44//93
f 44//94 54//94 46//94
f 46//95 45//95 26//95
f 4//96 20//96 15//96
f 19//97 43//97 5//97
f 1//98 17//98 19//98
f 30//99 37//99 3//99
