# Blender v2.76 (sub 0) OBJ File: 'StaticItems.blend'
# www.blender.org
o Arch
v -0.976363 -3.421077 1.129137
v -0.976363 -3.421076 -1.147608
v -3.202277 -0.770362 -0.976560
v -3.202277 -0.770362 0.958090
v -1.153172 -0.436670 -1.007376
v -1.163054 -0.508815 1.115055
v -1.948750 -1.423938 -1.044639
v -0.459343 -1.326856 -1.095555
v -0.459343 -1.326856 1.077084
v -1.163939 -2.559801 -1.095555
v -1.163939 -2.559802 1.077084
v -4.649185 -0.758954 0.939088
v -4.954310 0.379787 0.939088
v -4.649185 -0.758954 -0.957559
v -4.954310 0.379787 -0.957559
v -1.030558 -4.769224 1.129137
v -1.030558 -4.769224 -1.147608
v -1.067711 -6.190213 1.129137
v -1.067711 -6.190213 -1.147608
v -3.387853 -0.890405 -1.176499
v -4.921973 0.529303 1.206653
v -4.543769 -0.890405 1.158029
v -4.543769 -0.890405 -1.176499
v -0.448124 -1.223934 -1.176499
v -1.331798 -2.421188 -1.176499
v -1.331798 -2.421189 1.158028
v -1.182728 -2.689909 1.143582
v -1.199229 -2.711531 -1.213944
v -1.209371 -0.287986 1.246139
v -1.209371 -0.287986 -1.176499
v -2.104347 -1.485601 -1.176499
v -1.936120 -1.633622 -1.176499
v -1.936120 -1.633622 1.158028
v -1.009494 -0.511347 -1.176499
v -0.448124 -1.223934 1.112910
v -0.534146 -1.340481 1.243674
v -0.455822 -1.294552 1.132271
v -1.100496 -0.621563 1.243592
v -1.009494 -0.511347 1.112910
v -1.113665 -0.509629 1.159393
v -1.887519 -1.405704 1.005587
v -1.957498 -1.487801 0.834139
v -1.947289 -1.562773 1.075685
v -2.104347 -1.485601 0.997570
v -2.036611 -1.394959 1.164697
v -2.199123 -1.435651 1.158028
v -2.891039 0.391195 0.843214
v -2.914116 0.305068 0.958090
v -2.770104 0.465028 1.043152
v -2.795119 0.379041 1.158029
v -2.301452 0.238915 1.184486
v -2.963628 0.543025 0.993139
v -3.435975 0.540219 1.137831
v -3.501245 -0.890405 1.158029
v -3.387853 -0.890405 1.049281
v -3.095911 0.480482 1.118379
v -2.947099 0.374689 1.026655
v -2.969958 0.522092 1.023743
v 1.061384 -3.421077 -1.129137
v 1.061384 -3.421076 1.147608
v 3.090443 0.400680 0.976560
v 3.401681 -0.760878 0.976559
v 3.401681 -0.760878 -0.958090
v 1.153172 -0.436670 1.007376
v 1.163054 -0.508815 -1.115055
v 1.948750 -1.423938 1.044639
v 0.459343 -1.326856 1.095555
v 0.459343 -1.326856 -1.077084
v 1.163939 -2.559801 1.095555
v 1.163939 -2.559802 -1.077084
v 1.002066 -4.913642 -1.129137
v 1.002066 -4.913642 1.147608
v 0.961194 -6.000587 -1.129137
v 0.961194 -6.000587 1.147608
v 2.969508 0.474512 1.176498
v 3.373030 -0.912580 1.176498
v 3.373030 -0.912580 -1.158029
v 0.448124 -1.223934 1.176499
v 1.331798 -2.421188 1.176499
v 1.331798 -2.421189 -1.158028
v 1.182728 -2.704466 -1.143582
v 1.182728 -2.704466 1.162054
v 1.209371 -0.287986 -1.246139
v 1.209371 -0.287986 1.176499
v 2.104347 -1.485601 1.176498
v 1.936120 -1.633622 1.176499
v 1.936120 -1.633622 -1.158029
v 1.009494 -0.511347 1.176499
v 0.448124 -1.223934 -1.112910
v 0.534145 -1.340481 -1.243674
v 0.455821 -1.294552 -1.132271
v 1.100496 -0.621563 -1.243592
v 1.009494 -0.511347 -1.112910
v 1.113665 -0.509629 -1.159393
v 1.887519 -1.405704 -1.005587
v 1.957498 -1.487801 -0.834139
v 1.947289 -1.562773 -1.075685
v 2.104347 -1.485601 -0.997570
v 2.036611 -1.394959 -1.164698
v 2.199123 -1.435651 -1.158029
v 3.090443 0.400680 -0.843214
v 3.113520 0.314553 -0.958090
v 2.969508 0.474512 -1.043153
v 2.994523 0.388525 -1.158029
v 2.301452 0.238915 -1.184487
v -3.002056 0.380710 -1.205161
v -2.954026 0.541607 -1.045412
v -4.923014 0.561354 -1.074074
v -4.896131 0.459614 -1.176499
v -3.131725 -0.965238 -1.176499
v -3.147760 -0.833150 -1.176499
v -3.131725 -0.965238 1.158029
v -3.147760 -0.833150 1.158029
v -2.891039 0.391195 -0.741960
v -2.929700 0.246911 -0.976560
v -2.812010 0.320978 -1.176499
v -2.770104 0.465028 -0.941898
v -1.847357 0.019826 -1.176499
v -0.641729 -2.051964 -1.308541
v -0.898648 -3.270568 -1.323578
v 0.629604 -1.832539 -1.303397
v -1.043288 -2.675385 -1.336330
v 1.044779 -2.675385 -1.320024
v 0.900139 -3.270568 -1.307273
v -0.348532 -1.229325 -1.094362
v -0.341404 -1.235899 1.078256
v 0.337212 -1.174110 -1.077973
v 0.344340 -1.180684 1.094644
v 0.316610 -1.350899 -1.187205
v -0.289654 -1.317152 -1.278894
v -1.072899 -3.502502 1.236119
v 1.158613 -4.822026 1.256341
v -1.066597 -4.663925 1.236119
v 1.158613 -4.822026 -1.236119
v -1.100801 -3.332633 1.136359
v -1.109051 -3.242952 -1.180776
v 1.142386 -3.309375 -1.136359
v 1.142386 -3.309374 1.154831
v -1.153497 -9.739790 -1.308784
v -1.153497 -9.739790 1.287718
v 1.160358 -9.739790 1.308784
v 1.160358 -9.739790 -1.287718
v -1.154207 -4.889552 -1.239072
v -1.154207 -4.889552 1.219128
v -1.148423 -6.022420 -1.239072
v -1.148423 -6.022420 1.219128
v 1.040415 -5.001355 1.239072
v 1.040415 -5.001355 -1.219128
v 1.042184 -5.875619 1.239072
v 1.042184 -5.875619 -1.219128
v 1.104649 -6.152066 -1.287718
v -1.209206 -6.325988 -1.308784
v -1.209206 -6.325988 1.287718
v 1.104649 -6.152066 1.308784
v 1.122981 -7.742154 -1.287718
v -1.163282 -7.378358 1.287718
v -1.163282 -7.378358 -1.308784
v 1.122981 -7.742154 1.308784
v 1.129214 -8.075286 -1.287718
v -1.161650 -7.772157 1.287718
v -1.161650 -7.772157 -1.308784
v 1.129214 -8.075286 1.308784
v -1.032201 -7.594238 -1.159793
v 0.995833 -7.889740 1.159793
v 0.995833 -7.889740 -1.141125
v -1.032201 -7.594238 1.141125
v -0.961481 -3.502501 -1.254920
v -1.118525 -3.502501 -1.096372
v -1.066597 -4.663925 -1.096341
v -0.905882 -4.675344 -1.254881
v -1.030569 -4.769190 -1.147643
v 1.115293 -3.466547 1.208329
v 1.140666 -3.466548 -1.188880
v 1.157949 -3.660699 -1.236119
v -0.183088 -3.554546 -1.337300
vn -0.045300 -0.725100 -0.687200
vn 0.064300 0.008900 0.997900
vn 0.033200 -0.604200 0.796100
vn -0.780100 -0.625600 0.000000
vn 0.676600 -0.499400 -0.541200
vn 0.980000 0.198800 0.011300
vn 0.619700 -0.475800 -0.624200
vn -0.617500 0.417400 0.666700
vn -0.812400 0.464300 -0.352800
vn -0.636700 -0.771100 -0.000000
vn -0.052500 -0.040300 0.997800
vn 0.785500 0.618800 0.000000
vn -0.800000 -0.599700 -0.020400
vn -0.934500 -0.250400 0.252900
vn -0.911400 -0.244200 -0.331200
vn -0.871800 0.253600 -0.419200
vn 0.916300 0.400600 0.000000
vn 0.434500 0.900700 0.000000
vn -0.451800 -0.892100 0.000000
vn 0.000000 -1.000000 0.000000
vn 0.781100 -0.209300 0.588300
vn 0.010000 0.999900 0.002800
vn 0.590900 -0.151800 0.792400
vn 0.000000 0.014100 0.999900
vn 0.173000 0.795900 0.580200
vn 0.819700 -0.468400 0.329700
vn 0.389700 -0.920400 -0.029500
vn -0.793400 -0.608800 -0.000000
vn -0.000000 0.000000 -1.000000
vn -0.974800 0.223000 0.004800
vn -0.702800 0.401600 0.587200
vn 0.919400 0.393200 0.004100
vn -0.036500 -0.018000 0.999200
vn -0.015300 -0.004000 -0.999900
vn -0.556500 0.474200 -0.682200
vn 0.590900 -0.549400 0.590800
vn 0.017000 0.999300 0.034000
vn 0.800800 0.075600 0.594200
vn 0.336800 0.591000 0.733000
vn 0.536600 0.422800 0.730300
vn 0.994100 -0.108400 0.000000
vn -0.894600 0.414700 0.166500
vn 0.207100 -0.892700 0.400200
vn 0.312100 -0.882400 0.352100
vn -0.989400 -0.145100 -0.000000
vn 0.184800 0.767100 0.614400
vn 0.941200 0.152400 0.301400
vn -0.782100 0.568500 0.255200
vn 0.574900 0.105200 0.811400
vn 0.505100 -0.863100 0.000000
vn 0.005900 -0.761200 -0.648500
vn -0.676600 -0.499400 0.541200
vn -0.980000 0.198800 -0.011300
vn -0.619700 -0.475800 0.624200
vn 0.411600 -0.911400 0.000000
vn 0.617500 0.417400 -0.666700
vn 0.666800 0.381000 0.640500
vn 0.636700 -0.771100 0.000000
vn 0.052500 -0.040300 -0.997800
vn -0.785500 0.618800 0.000000
vn -0.009100 0.022200 0.999700
vn 0.809500 -0.587100 0.000000
vn 0.022400 0.583900 0.811500
vn 0.051000 -0.459000 -0.887000
vn 0.009100 0.000200 -1.000000
vn 0.521100 0.853500 0.000000
vn 0.982600 -0.185600 0.000000
vn 0.867800 0.232500 0.439100
vn 0.906400 0.263700 -0.330000
vn 0.007200 -0.016200 -0.999800
vn -0.819700 -0.468400 -0.329700
vn -0.389700 -0.920500 0.029500
vn 0.793400 -0.608800 0.000000
vn 0.000000 -0.000000 1.000000
vn 0.991700 0.128800 -0.000000
vn -0.101200 -0.005100 0.994900
vn 0.666700 0.381000 -0.640500
vn -0.434500 0.900700 0.000000
vn 0.556500 0.474200 0.682200
vn -0.590900 -0.549400 -0.590800
vn -0.017000 0.999300 -0.034000
vn -0.800800 0.075600 -0.594200
vn -0.336800 0.591000 -0.733000
vn -0.536600 0.422800 -0.730300
vn -0.994100 -0.108400 0.000000
vn 0.894600 0.414700 -0.166500
vn -0.207100 -0.892700 -0.400200
vn -0.312100 -0.882400 -0.352100
vn 0.989400 -0.145100 0.000000
vn -0.144300 0.776900 -0.612900
vn 0.782100 0.568500 -0.255200
vn -0.965900 -0.258800 0.000000
vn -0.005500 0.798100 0.602500
vn -0.497000 0.867700 0.000000
vn -0.022900 -0.011800 0.999700
vn 0.965900 0.258800 0.000000
vn 0.954900 0.009500 -0.296700
vn 0.018500 0.701700 -0.712300
vn -0.985500 0.169900 0.000000
vn -0.966700 0.002300 -0.256000
vn -0.940300 -0.340400 0.000000
vn 0.613700 -0.462600 0.639900
vn -0.966800 -0.117400 0.226800
vn -0.913200 0.244700 0.325800
vn -0.966800 -0.117400 -0.226800
vn 0.543100 -0.839600 0.000000
vn -0.521100 0.853500 0.000000
vn 0.779900 -0.249600 -0.574000
vn 0.251100 0.804200 -0.538700
vn -0.764400 0.597700 -0.241600
vn 0.570700 -0.047800 -0.819800
vn 0.002000 0.011900 -0.999900
vn 0.757200 0.383400 -0.528800
vn -0.610700 0.791800 0.004400
vn -0.553200 0.359800 -0.751300
vn 0.009100 0.004400 -0.999900
vn -0.080300 0.996800 0.003300
vn 0.156500 0.505900 -0.848300
vn -0.571400 0.655200 -0.494200
vn 0.781000 0.624500 -0.000700
vn -0.003200 0.041800 -0.999100
vn 0.480200 0.487900 -0.728900
vn 0.005100 0.827700 -0.561100
vn 0.999400 0.032500 0.014900
vn -0.998800 -0.044700 0.019500
vn -0.057500 -0.721100 0.690400
vn 0.075200 0.000000 -0.997200
vn -0.946100 -0.323800 0.000000
vn -0.055900 -0.007800 -0.998400
vn 0.484200 -0.401400 -0.777400
vn -0.088100 -0.000600 0.996100
vn 0.997800 -0.066500 0.000000
vn -0.986000 -0.166800 0.008400
vn 0.090800 0.000400 0.995900
vn -0.588800 -0.149500 -0.794400
vn 0.074200 -0.003300 -0.997200
vn -0.526000 -0.517500 -0.674900
vn -0.009200 -0.000000 1.000000
vn 0.999800 0.018700 0.000000
vn -1.000000 -0.004100 0.000000
vn 0.009100 0.000000 -1.000000
vn -1.000000 -0.005100 0.000000
vn -0.009100 -0.000000 1.000000
vn 1.000000 0.002000 0.000000
vn -0.697400 0.716700 0.000000
vn 0.057900 0.727100 -0.684000
vn 0.839200 -0.543900 0.000000
vn -0.901200 -0.433500 0.000000
vn -0.692400 0.721500 0.000000
vn 0.726100 0.687600 0.000000
vn -0.064700 0.785800 0.615100
vn -0.058400 0.695000 -0.716700
vn -0.999000 -0.043600 0.000000
vn 0.999900 0.011500 0.000000
vn -0.009100 -0.000400 1.000000
vn 0.009200 0.000100 -1.000000
vn -0.808600 0.588300 0.000000
vn 0.812000 0.583700 0.000000
vn 0.079900 0.598600 0.797100
vn 0.093900 0.657900 -0.747200
vn -0.089600 -0.662000 -0.744200
vn -0.102900 -0.600800 0.792700
vn 0.757600 -0.652700 0.000000
vn -0.854800 -0.519000 0.000000
vn -0.694100 0.109200 -0.711500
vn -0.703100 -0.033400 -0.710300
vn -0.555400 0.623600 -0.550200
vn 0.996200 0.086100 0.010500
vn 0.092100 0.243100 -0.965600
vn 0.640300 0.768100 0.006800
vn -0.006600 0.035200 0.999400
vn -0.105600 -0.005000 -0.994400
vn -0.044300 -0.719800 -0.692800
vn 0.034800 -0.459300 0.887600
vn 0.306500 -0.175200 -0.935600
vn 0.935400 0.353600 0.000000
vn 0.666900 -0.498400 -0.553900
vn -0.597200 0.436100 0.673200
vn -0.693800 0.496700 0.521500
vn -0.669100 0.506500 0.543900
vn -0.052400 -0.041100 0.997800
vn -0.579300 -0.815100 -0.000000
vn -0.922100 -0.255600 0.290500
vn -0.923100 -0.240900 -0.299800
vn -0.913200 0.244700 -0.325800
vn -0.450300 -0.892800 0.011900
vn -0.006200 1.000000 -0.000700
vn -0.006700 0.999900 0.014100
vn 0.438800 -0.150800 0.885800
vn 0.059100 0.011400 0.998200
vn 0.046400 -0.021800 0.998700
vn 0.758100 -0.582700 0.292700
vn 0.242500 -0.253200 0.936500
vn -0.015000 -0.999900 0.000000
vn -0.989700 0.142900 0.000000
vn 0.902200 0.431300 0.000000
vn -0.067400 -0.023000 0.997500
vn -0.049400 0.014400 0.998700
vn -0.010400 -0.016400 0.999800
vn 0.000000 -0.022500 -0.999700
vn -0.522300 0.431200 -0.735700
vn 0.440000 -0.388400 0.809700
vn 0.461200 0.887300 -0.000000
vn 0.016500 0.999900 -0.000000
vn 0.536800 0.422900 0.730100
vn 0.320100 -0.898700 0.299700
vn -0.985800 -0.167400 -0.010300
vn -0.998400 -0.056000 -0.006600
vn 0.941800 0.149500 0.301300
vn 0.942100 0.152000 0.298900
vn -0.782500 0.563400 0.265200
vn -0.306500 -0.175200 0.935600
vn -0.935400 0.353600 0.000000
vn -0.666900 -0.498400 0.553900
vn 0.406600 -0.912500 -0.043900
vn 0.597200 0.436100 -0.673200
vn 0.693800 0.496700 -0.521500
vn 0.669100 0.506500 -0.543900
vn 0.052400 -0.041100 -0.997800
vn -0.020100 0.029800 0.999400
vn 0.045700 0.730500 0.681400
vn 0.047700 -0.603900 -0.795600
vn 0.009200 0.000000 -1.000000
vn 0.906400 0.263700 0.330000
vn 0.871100 0.233400 -0.432100
vn 0.067400 -0.023000 -0.997500
vn 0.035900 0.010400 -0.999300
vn 0.036500 -0.018000 -0.999200
vn -0.758100 -0.582700 -0.292700
vn -0.242500 -0.253200 -0.936500
vn 0.015000 -0.999900 0.000000
vn -0.397400 0.917400 0.020900
vn -0.332600 0.943100 0.000000
vn 0.522300 0.431200 0.735700
vn -0.440000 -0.388400 -0.809700
vn -0.461200 0.887300 0.000000
vn -0.016500 0.999900 0.000000
vn -0.536800 0.422900 -0.730100
vn -0.320100 -0.898700 -0.299700
vn 0.985800 -0.167400 0.010300
vn 0.998400 -0.056000 0.006600
vn 0.782500 0.563400 -0.265200
vn -0.636600 0.771100 0.012500
vn -0.020100 0.013200 0.999700
vn 0.982000 0.037800 -0.185100
vn 0.017400 0.711600 -0.702300
vn -0.978600 0.205700 0.003300
vn -0.869600 0.253000 0.424000
vn 0.878500 -0.235400 -0.415800
vn -0.767600 0.598200 -0.230200
vn 0.756300 -0.197200 -0.623800
vn 0.810400 0.444000 -0.382400
vn -0.660700 0.750700 0.000000
vn -0.617400 0.427100 -0.660600
vn -0.061300 0.893500 -0.444800
vn -0.694600 0.358000 -0.624000
vn 0.785900 0.618300 -0.000000
vn 0.159100 0.328000 -0.931200
vn 0.514100 0.406700 -0.755200
vn -0.010900 0.795900 -0.605400
vn 0.013200 0.804000 -0.594400
vn 1.000000 0.000600 0.000000
vn -1.000000 -0.005400 0.000000
vn 0.003700 -0.075700 -0.997100
vn -0.945900 -0.324300 -0.005700
vn -0.992000 -0.126400 -0.001400
vn -0.568600 -0.155500 -0.807800
vn -0.009100 -0.000200 1.000000
vn 0.037000 0.580400 -0.813500
vn -0.071400 0.694300 0.716100
vn -0.053500 0.786400 -0.615500
vn -0.009200 -0.000100 1.000000
vn 0.009100 0.000400 -1.000000
vn 0.080300 0.658500 0.748300
vn 0.094400 0.597900 -0.796000
vn -0.088400 -0.601600 -0.793900
vn -0.103200 -0.661200 0.743000
vn -0.710100 -0.031800 -0.703400
vn 0.497500 0.867500 -0.000000
vn 0.012700 0.000100 0.999900
s off
f 170//1 71//1 17//1
f 135//2 1//2 9//2
f 74//3 149//3 146//3
f 12//4 14//4 23//4
f 25//5 24//5 8//5
f 29//6 6//6 5//6
f 30//7 5//7 7//7
f 41//8 38//8 6//8
f 10//9 8//9 28//9
f 25//10 10//10 11//10
f 33//11 26//11 36//11
f 39//12 35//12 24//12
f 135//13 136//13 2//13
f 21//14 13//14 12//14
f 14//15 15//15 109//15
f 115//16 116//16 111//16
f 72//17 147//17 148//17
f 117//18 51//18 118//18
f 110//19 44//19 112//19
f 22//20 23//20 55//20
f 48//21 57//21 4//21
f 108//22 53//22 107//22
f 56//23 54//23 4//23
f 53//24 22//24 54//24
f 56//25 58//25 52//25
f 36//26 11//26 9//26
f 31//27 7//27 42//27
f 32//28 25//28 26//28
f 32//29 34//29 24//29
f 10//30 28//30 27//30
f 11//31 27//31 9//31
f 114//32 107//32 52//32
f 46//33 45//33 51//33
f 23//34 109//34 106//34
f 7//35 5//35 34//35
f 45//36 41//36 6//36
f 6//37 39//37 5//37
f 35//38 36//38 37//38
f 38//39 39//39 40//39
f 35//40 39//40 38//40
f 35//41 9//41 8//41
f 41//42 42//42 43//42
f 44//43 45//43 46//43
f 41//44 45//44 44//44
f 42//45 32//45 33//45
f 49//46 50//46 51//46
f 52//47 57//47 47//47
f 48//48 50//48 49//48
f 111//29 118//29 31//29
f 56//49 57//49 58//49
f 134//50 132//50 72//50
f 2//51 120//51 124//51
f 79//52 78//52 67//52
f 83//53 65//53 64//53
f 84//54 64//54 66//54
f 76//55 98//55 77//55
f 95//56 92//56 65//56
f 69//57 67//57 82//57
f 79//58 69//58 70//58
f 87//59 80//59 90//59
f 88//60 93//60 89//60
f 1//61 60//61 67//61
f 138//62 60//62 59//62
f 16//63 144//63 147//63
f 73//64 19//64 145//64
f 159//65 142//65 139//65
f 61//66 101//66 103//66
f 62//67 76//67 77//67
f 62//68 61//68 75//68
f 63//69 77//69 104//69
f 77//70 100//70 105//70
f 90//71 70//71 68//71
f 85//72 66//72 96//72
f 86//73 79//73 80//73
f 86//74 88//74 78//74
f 69//75 82//75 81//75
f 82//76 67//76 138//76
f 70//77 81//77 68//77
f 105//78 83//78 84//78
f 75//74 84//74 85//74
f 66//79 64//79 88//79
f 99//80 95//80 65//80
f 65//81 93//81 64//81
f 89//82 90//82 91//82
f 92//83 93//83 94//83
f 89//84 93//84 92//84
f 89//85 68//85 67//85
f 95//86 96//86 97//86
f 98//87 99//87 100//87
f 95//88 99//88 98//88
f 96//89 86//89 87//89
f 103//90 104//90 105//90
f 102//91 104//91 103//91
f 12//92 13//92 15//92
f 172//93 60//93 1//93
f 1//94 2//94 168//94
f 67//95 128//95 126//95
f 63//96 102//96 62//96
f 102//96 101//96 62//96
f 61//96 62//96 101//96
f 115//97 106//97 107//97
f 107//98 106//98 109//98
f 108//99 15//99 13//99
f 108//100 109//100 15//100
f 112//101 4//101 3//101
f 4//102 54//102 55//102
f 4//103 112//103 113//103
f 48//104 4//104 113//104
f 110//105 3//105 111//105
f 55//106 20//106 3//106
f 47//107 49//107 117//107
f 3//108 20//108 106//108
f 116//109 117//109 118//109
f 115//110 114//110 117//110
f 81//111 137//111 124//111
f 119//112 121//112 120//112
f 81//113 123//113 121//113
f 9//114 126//114 125//114
f 28//115 8//115 119//115
f 121//116 124//116 120//116
f 126//117 128//117 127//117
f 127//118 129//118 130//118
f 8//119 125//119 130//119
f 68//120 127//120 128//120
f 121//121 119//121 130//121
f 68//122 121//122 129//122
f 59//123 175//123 2//123
f 174//124 172//124 132//124
f 131//125 168//125 169//125
f 72//126 132//126 133//126
f 175//127 174//127 134//127
f 169//128 17//128 16//128
f 123//129 124//129 121//129
f 137//130 59//130 124//130
f 67//131 60//131 138//131
f 82//132 138//132 137//132
f 27//133 28//133 136//133
f 27//134 135//134 9//134
f 136//135 28//135 122//135
f 122//136 119//136 120//136
f 2//137 136//137 120//137
f 142//20 141//20 140//20
f 162//138 160//138 140//138
f 162//139 141//139 142//139
f 161//140 139//140 140//140
f 143//141 148//141 150//141
f 143//142 145//142 146//142
f 149//143 147//143 144//143
f 147//144 149//144 150//144
f 17//145 143//145 144//145
f 17//146 71//146 148//146
f 74//147 73//147 150//147
f 19//148 18//148 146//148
f 19//149 152//149 153//149
f 74//150 154//150 151//150
f 18//151 153//151 154//151
f 19//152 73//152 151//152
f 152//153 157//153 156//153
f 154//154 158//154 155//154
f 154//155 153//155 156//155
f 151//156 155//156 157//156
f 163//157 161//157 160//157
f 164//158 162//158 159//158
f 164//159 166//159 160//159
f 165//160 159//160 161//160
f 155//161 165//161 163//161
f 158//162 156//162 166//162
f 155//163 158//163 164//163
f 156//164 157//164 163//164
f 169//165 170//165 171//165
f 167//166 170//166 169//166
f 167//167 168//167 2//167
f 172//168 174//168 173//168
f 173//169 174//169 175//169
f 60//170 172//170 173//170
f 133//171 132//171 172//171
f 167//172 175//172 170//172
f 17//173 171//173 170//173
f 170//1 134//1 71//1
f 18//174 74//174 146//174
f 22//4 12//4 23//4
f 10//175 25//175 8//175
f 30//176 29//176 5//176
f 31//177 30//177 7//177
f 40//178 6//178 38//178
f 41//179 43//179 33//179
f 33//180 38//180 41//180
f 26//10 25//10 11//10
f 38//181 33//181 36//181
f 34//12 39//12 24//12
f 1//182 135//182 2//182
f 22//183 21//183 12//183
f 23//184 14//184 109//184
f 3//185 115//185 111//185
f 71//17 72//17 148//17
f 30//18 118//18 29//18
f 117//18 49//18 51//18
f 51//18 29//18 118//18
f 46//186 112//186 44//186
f 110//19 31//19 44//19
f 20//20 55//20 23//20
f 54//20 22//20 55//20
f 52//187 107//187 53//187
f 108//188 21//188 53//188
f 57//189 56//189 4//189
f 54//190 56//190 53//190
f 53//191 21//191 22//191
f 53//25 56//25 52//25
f 9//192 37//192 36//192
f 36//193 26//193 11//193
f 44//194 31//194 42//194
f 33//28 32//28 26//28
f 25//29 32//29 24//29
f 11//195 10//195 27//195
f 47//196 114//196 52//196
f 29//197 51//197 45//197
f 50//198 113//198 51//198
f 112//74 46//74 113//74
f 51//199 113//199 46//199
f 20//200 23//200 106//200
f 32//201 7//201 34//201
f 29//202 45//202 6//202
f 34//203 5//203 39//203
f 6//204 40//204 39//204
f 36//205 35//205 38//205
f 8//41 24//41 35//41
f 35//41 37//41 9//41
f 42//206 41//206 44//206
f 33//207 43//207 42//207
f 42//208 7//208 32//208
f 48//209 47//209 57//209
f 52//210 58//210 57//210
f 47//211 48//211 49//211
f 31//29 110//29 111//29
f 111//29 116//29 118//29
f 118//29 30//29 31//29
f 71//50 134//50 72//50
f 59//51 2//51 124//51
f 69//212 79//212 67//212
f 84//213 83//213 64//213
f 85//214 84//214 66//214
f 100//215 77//215 98//215
f 76//55 85//55 98//55
f 94//216 65//216 92//216
f 95//217 97//217 87//217
f 87//218 92//218 95//218
f 80//58 79//58 70//58
f 92//219 87//219 90//219
f 78//60 88//60 89//60
f 9//220 1//220 67//220
f 137//62 138//62 59//62
f 72//221 16//221 147//221
f 150//222 73//222 145//222
f 161//223 159//223 139//223
f 75//66 61//66 103//66
f 63//67 62//67 77//67
f 76//224 62//224 75//224
f 102//225 63//225 104//225
f 83//226 105//226 99//226
f 104//227 77//227 105//227
f 100//228 99//228 105//228
f 68//229 91//229 90//229
f 90//230 80//230 70//230
f 98//231 85//231 96//231
f 87//73 86//73 80//73
f 79//74 86//74 78//74
f 70//75 69//75 81//75
f 84//232 75//232 105//232
f 103//233 105//233 75//233
f 76//74 75//74 85//74
f 86//234 66//234 88//234
f 83//235 99//235 65//235
f 88//236 64//236 93//236
f 65//237 94//237 93//237
f 90//238 89//238 92//238
f 67//85 78//85 89//85
f 89//85 91//85 68//85
f 96//239 95//239 98//239
f 87//240 97//240 96//240
f 96//241 66//241 86//241
f 101//242 102//242 103//242
f 14//92 12//92 15//92
f 131//93 172//93 1//93
f 131//243 1//243 168//243
f 9//244 67//244 126//244
f 114//245 115//245 107//245
f 108//246 107//246 109//246
f 21//247 108//247 13//247
f 110//101 112//101 3//101
f 50//248 48//248 113//248
f 4//106 55//106 3//106
f 114//107 47//107 117//107
f 115//249 3//249 106//249
f 116//250 115//250 117//250
f 123//251 81//251 124//251
f 68//252 81//252 121//252
f 8//253 9//253 125//253
f 122//254 28//254 119//254
f 125//117 126//117 127//117
f 125//255 127//255 130//255
f 119//256 8//256 130//256
f 67//257 68//257 128//257
f 129//258 121//258 130//258
f 127//259 68//259 129//259
f 167//260 2//260 175//260
f 59//261 173//261 175//261
f 134//262 174//262 132//262
f 133//263 131//263 169//263
f 16//126 72//126 133//126
f 170//264 175//264 134//264
f 16//128 133//128 169//128
f 169//265 171//265 17//265
f 81//132 82//132 137//132
f 135//266 27//266 136//266
f 120//267 136//267 122//267
f 139//20 142//20 140//20
f 141//268 162//268 140//268
f 159//139 162//139 142//139
f 160//140 161//140 140//140
f 145//141 143//141 150//141
f 144//142 143//142 146//142
f 146//143 149//143 144//143
f 148//144 147//144 150//144
f 16//145 17//145 144//145
f 143//269 17//269 148//269
f 149//147 74//147 150//147
f 145//148 19//148 146//148
f 18//149 19//149 153//149
f 73//150 74//150 151//150
f 74//270 18//270 154//270
f 152//271 19//271 151//271
f 153//153 152//153 156//153
f 151//154 154//154 155//154
f 158//272 154//272 156//272
f 152//273 151//273 157//273
f 166//157 163//157 160//157
f 165//158 164//158 159//158
f 162//274 164//274 160//274
f 163//275 165//275 161//275
f 157//276 155//276 163//276
f 164//277 158//277 166//277
f 165//163 155//163 164//163
f 166//164 156//164 163//164
f 168//278 167//278 169//278
f 59//279 60//279 173//279
f 131//280 133//280 172//280
